<svg xmlns="http://www.w3.org/2000/svg" width="64" height="64" viewBox="0 0 16 16"
    shape-rendering="crispEdges">
    <!-- #525152 : 32 px -->
    <g fill="#525152">
        <rect x="5" y="0" width="1" height="1" />
        <rect x="7" y="0" width="1" height="1" />
        <rect x="12" y="0" width="1" height="1" />
        <rect x="7" y="1" width="1" height="1" />
        <rect x="11" y="1" width="2" height="1" />
        <rect x="4" y="2" width="1" height="1" />
        <rect x="9" y="2" width="2" height="1" />
        <rect x="0" y="4" width="1" height="1" />
        <rect x="7" y="4" width="1" height="1" />
        <rect x="0" y="5" width="2" height="1" />
        <rect x="5" y="5" width="1" height="1" />
        <rect x="12" y="5" width="3" height="1" />
        <rect x="8" y="6" width="1" height="1" />
        <rect x="7" y="7" width="2" height="1" />
        <rect x="15" y="7" width="1" height="1" />
        <rect x="3" y="8" width="1" height="1" />
        <rect x="4" y="10" width="1" height="1" />
        <rect x="8" y="10" width="1" height="1" />
        <rect x="15" y="10" width="1" height="1" />
        <rect x="1" y="11" width="1" height="1" />
        <rect x="14" y="11" width="1" height="1" />
        <rect x="0" y="13" width="1" height="1" />
        <rect x="3" y="13" width="1" height="1" />
        <rect x="11" y="14" width="1" height="1" />
        <rect x="13" y="15" width="1" height="1" />
        <rect x="15" y="15" width="1" height="1" />
    </g>
    <!-- #373737 : 26 px -->
    <g fill="#373737">
        <rect x="0" y="0" width="1" height="1" />
        <rect x="8" y="0" width="2" height="1" />
        <rect x="6" y="2" width="2" height="1" />
        <rect x="9" y="3" width="1" height="1" />
        <rect x="15" y="3" width="1" height="1" />
        <rect x="5" y="4" width="2" height="1" />
        <rect x="9" y="4" width="1" height="1" />
        <rect x="12" y="4" width="1" height="1" />
        <rect x="2" y="7" width="2" height="1" />
        <rect x="12" y="8" width="1" height="1" />
        <rect x="6" y="9" width="2" height="1" />
        <rect x="15" y="9" width="1" height="1" />
        <rect x="6" y="10" width="1" height="1" />
        <rect x="2" y="12" width="1" height="1" />
        <rect x="7" y="12" width="1" height="1" />
        <rect x="11" y="12" width="1" height="1" />
        <rect x="9" y="13" width="1" height="1" />
        <rect x="3" y="14" width="1" height="1" />
        <rect x="7" y="14" width="2" height="1" />
        <rect x="6" y="15" width="1" height="1" />
    </g>
    <!-- #5a5a5a : 25 px -->
    <g fill="#5a5a5a">
        <rect x="13" y="0" width="1" height="1" />
        <rect x="1" y="1" width="1" height="1" />
        <rect x="9" y="1" width="2" height="1" />
        <rect x="15" y="1" width="1" height="1" />
        <rect x="8" y="2" width="1" height="1" />
        <rect x="4" y="3" width="1" height="1" />
        <rect x="7" y="3" width="1" height="1" />
        <rect x="4" y="4" width="1" height="1" />
        <rect x="8" y="4" width="1" height="1" />
        <rect x="15" y="4" width="1" height="1" />
        <rect x="6" y="5" width="1" height="1" />
        <rect x="11" y="5" width="1" height="1" />
        <rect x="15" y="5" width="1" height="1" />
        <rect x="2" y="8" width="1" height="1" />
        <rect x="9" y="9" width="1" height="1" />
        <rect x="12" y="9" width="1" height="1" />
        <rect x="7" y="10" width="1" height="1" />
        <rect x="8" y="11" width="1" height="1" />
        <rect x="15" y="11" width="1" height="1" />
        <rect x="4" y="12" width="1" height="1" />
        <rect x="13" y="12" width="1" height="1" />
        <rect x="10" y="13" width="2" height="1" />
        <rect x="7" y="15" width="1" height="1" />
    </g>
    <!-- #5b5b5b : 21 px -->
    <g fill="#5b5b5b">
        <rect x="3" y="3" width="1" height="1" />
        <rect x="13" y="3" width="1" height="1" />
        <rect x="8" y="5" width="2" height="1" />
        <rect x="0" y="6" width="1" height="1" />
        <rect x="4" y="6" width="1" height="1" />
        <rect x="9" y="6" width="1" height="1" />
        <rect x="11" y="8" width="1" height="1" />
        <rect x="1" y="9" width="1" height="1" />
        <rect x="11" y="9" width="1" height="1" />
        <rect x="3" y="10" width="1" height="1" />
        <rect x="12" y="10" width="1" height="1" />
        <rect x="2" y="11" width="1" height="1" />
        <rect x="9" y="11" width="1" height="1" />
        <rect x="5" y="12" width="1" height="1" />
        <rect x="9" y="12" width="1" height="1" />
        <rect x="6" y="13" width="1" height="1" />
        <rect x="6" y="14" width="1" height="1" />
        <rect x="9" y="14" width="1" height="1" />
        <rect x="8" y="15" width="1" height="1" />
        <rect x="12" y="15" width="1" height="1" />
    </g>
    <!-- #3e3e3e : 20 px -->
    <g fill="#3e3e3e">
        <rect x="4" y="0" width="1" height="1" />
        <rect x="10" y="0" width="1" height="1" />
        <rect x="15" y="0" width="1" height="1" />
        <rect x="8" y="1" width="1" height="1" />
        <rect x="0" y="2" width="1" height="1" />
        <rect x="6" y="3" width="1" height="1" />
        <rect x="13" y="4" width="1" height="1" />
        <rect x="3" y="5" width="2" height="1" />
        <rect x="3" y="6" width="1" height="1" />
        <rect x="4" y="7" width="1" height="1" />
        <rect x="0" y="8" width="1" height="1" />
        <rect x="14" y="9" width="1" height="1" />
        <rect x="4" y="11" width="1" height="1" />
        <rect x="1" y="12" width="1" height="1" />
        <rect x="2" y="13" width="1" height="1" />
        <rect x="8" y="13" width="1" height="1" />
        <rect x="4" y="15" width="2" height="1" />
        <rect x="11" y="15" width="1" height="1" />
    </g>
    <!-- #6c6c6c : 14 px -->
    <g fill="#6c6c6c">
        <rect x="6" y="0" width="1" height="1" />
        <rect x="2" y="2" width="2" height="1" />
        <rect x="7" y="5" width="1" height="1" />
        <rect x="1" y="6" width="1" height="1" />
        <rect x="6" y="7" width="1" height="1" />
        <rect x="2" y="9" width="1" height="1" />
        <rect x="11" y="10" width="1" height="1" />
        <rect x="10" y="11" width="1" height="1" />
        <rect x="6" y="12" width="1" height="1" />
        <rect x="8" y="12" width="1" height="1" />
        <rect x="4" y="13" width="1" height="1" />
        <rect x="5" y="14" width="1" height="1" />
        <rect x="9" y="15" width="1" height="1" />
    </g>
    <!-- #3f3f3f : 14 px -->
    <g fill="#3f3f3f">
        <rect x="1" y="0" width="1" height="1" />
        <rect x="14" y="0" width="1" height="1" />
        <rect x="1" y="3" width="1" height="1" />
        <rect x="11" y="4" width="1" height="1" />
        <rect x="10" y="5" width="1" height="1" />
        <rect x="0" y="7" width="1" height="1" />
        <rect x="10" y="7" width="1" height="1" />
        <rect x="1" y="8" width="1" height="1" />
        <rect x="5" y="11" width="1" height="1" />
        <rect x="7" y="11" width="1" height="1" />
        <rect x="10" y="12" width="1" height="1" />
        <rect x="14" y="12" width="1" height="1" />
        <rect x="15" y="13" width="1" height="1" />
        <rect x="10" y="14" width="1" height="1" />
    </g>
    <!-- #6b6b6b : 13 px -->
    <g fill="#6b6b6b">
        <rect x="3" y="0" width="1" height="1" />
        <rect x="11" y="2" width="1" height="1" />
        <rect x="14" y="2" width="1" height="1" />
        <rect x="11" y="3" width="1" height="1" />
        <rect x="3" y="4" width="1" height="1" />
        <rect x="10" y="6" width="1" height="1" />
        <rect x="11" y="7" width="1" height="1" />
        <rect x="4" y="9" width="1" height="1" />
        <rect x="10" y="9" width="1" height="1" />
        <rect x="6" y="11" width="1" height="1" />
        <rect x="7" y="13" width="1" height="1" />
        <rect x="12" y="13" width="1" height="1" />
        <rect x="3" y="15" width="1" height="1" />
    </g>
    <!-- #515051 : 11 px -->
    <g fill="#515051">
        <rect x="11" y="0" width="1" height="1" />
        <rect x="10" y="3" width="1" height="1" />
        <rect x="10" y="4" width="1" height="1" />
        <rect x="12" y="6" width="1" height="1" />
        <rect x="13" y="7" width="1" height="1" />
        <rect x="4" y="8" width="1" height="1" />
        <rect x="8" y="9" width="1" height="1" />
        <rect x="5" y="10" width="1" height="1" />
        <rect x="12" y="12" width="1" height="1" />
        <rect x="15" y="12" width="1" height="1" />
        <rect x="1" y="13" width="1" height="1" />
    </g>
    <!-- #383838 : 9 px -->
    <g fill="#383838">
        <rect x="0" y="1" width="1" height="1" />
        <rect x="5" y="1" width="1" height="1" />
        <rect x="8" y="3" width="1" height="1" />
        <rect x="11" y="6" width="1" height="1" />
        <rect x="12" y="7" width="1" height="1" />
        <rect x="15" y="8" width="1" height="1" />
        <rect x="0" y="11" width="1" height="1" />
        <rect x="3" y="12" width="1" height="1" />
        <rect x="1" y="14" width="1" height="1" />
    </g>
    <!-- #5c5c5c : 8 px -->
    <g fill="#5c5c5c">
        <rect x="2" y="1" width="1" height="1" />
        <rect x="15" y="2" width="1" height="1" />
        <rect x="12" y="3" width="1" height="1" />
        <rect x="15" y="6" width="1" height="1" />
        <rect x="5" y="7" width="1" height="1" />
        <rect x="1" y="10" width="1" height="1" />
        <rect x="14" y="13" width="1" height="1" />
        <rect x="2" y="15" width="1" height="1" />
    </g>
    <!-- #787878 : 7 px -->
    <g fill="#787878">
        <rect x="3" y="1" width="1" height="1" />
        <rect x="12" y="2" width="1" height="1" />
        <rect x="3" y="9" width="1" height="1" />
        <rect x="9" y="10" width="1" height="1" />
        <rect x="5" y="13" width="1" height="1" />
        <rect x="13" y="13" width="1" height="1" />
        <rect x="14" y="14" width="1" height="1" />
    </g>
    <!-- #393939 : 6 px -->
    <g fill="#393939">
        <rect x="14" y="3" width="1" height="1" />
        <rect x="0" y="10" width="1" height="1" />
        <rect x="13" y="10" width="1" height="1" />
        <rect x="11" y="11" width="1" height="1" />
        <rect x="15" y="14" width="1" height="1" />
        <rect x="0" y="15" width="1" height="1" />
    </g>
    <!-- #535253 : 5 px -->
    <g fill="#535253">
        <rect x="2" y="0" width="1" height="1" />
        <rect x="6" y="1" width="1" height="1" />
        <rect x="14" y="1" width="1" height="1" />
        <rect x="2" y="3" width="1" height="1" />
        <rect x="4" y="14" width="1" height="1" />
    </g>
    <!-- #797979 : 5 px -->
    <g fill="#797979">
        <rect x="6" y="6" width="2" height="1" />
        <rect x="14" y="6" width="1" height="1" />
        <rect x="10" y="10" width="1" height="1" />
        <rect x="12" y="14" width="1" height="1" />
    </g>
    <!-- #505050 : 5 px -->
    <g fill="#505050">
        <rect x="4" y="1" width="1" height="1" />
        <rect x="1" y="4" width="1" height="1" />
        <rect x="14" y="4" width="1" height="1" />
        <rect x="1" y="7" width="1" height="1" />
        <rect x="5" y="9" width="1" height="1" />
    </g>
    <!-- #595959 : 5 px -->
    <g fill="#595959">
        <rect x="5" y="2" width="1" height="1" />
        <rect x="2" y="5" width="1" height="1" />
        <rect x="0" y="12" width="1" height="1" />
        <rect x="0" y="14" width="1" height="1" />
        <rect x="2" y="14" width="1" height="1" />
    </g>
    <!-- #5b5a5b : 3 px -->
    <g fill="#5b5a5b">
        <rect x="14" y="7" width="1" height="1" />
        <rect x="14" y="8" width="1" height="1" />
        <rect x="14" y="15" width="1" height="1" />
    </g>
    <!-- #777777 : 3 px -->
    <g fill="#777777">
        <rect x="13" y="6" width="1" height="1" />
        <rect x="2" y="10" width="1" height="1" />
        <rect x="1" y="15" width="1" height="1" />
    </g>
    <!-- #434343 : 2 px -->
    <g fill="#434343">
        <rect x="5" y="8" width="1" height="1" />
        <rect x="7" y="8" width="1" height="1" />
    </g>
    <!-- #696969 : 2 px -->
    <g fill="#696969">
        <rect x="0" y="3" width="1" height="1" />
        <rect x="14" y="10" width="1" height="1" />
    </g>
    <!-- #6a6a6a : 2 px -->
    <g fill="#6a6a6a">
        <rect x="2" y="6" width="1" height="1" />
        <rect x="0" y="9" width="1" height="1" />
    </g>
    <!-- #404040 : 2 px -->
    <g fill="#404040">
        <rect x="1" y="2" width="1" height="1" />
        <rect x="13" y="9" width="1" height="1" />
    </g>
    <!-- #504f50 : 2 px -->
    <g fill="#504f50">
        <rect x="13" y="8" width="1" height="1" />
        <rect x="13" y="11" width="1" height="1" />
    </g>
    <!-- #515151 : 2 px -->
    <g fill="#515151">
        <rect x="5" y="3" width="1" height="1" />
        <rect x="3" y="11" width="1" height="1" />
    </g>
    <!-- #6d6d6d : 1 px -->
    <g fill="#6d6d6d">
        <rect x="13" y="14" width="1" height="1" />
    </g>
    <!-- #444444 : 1 px -->
    <g fill="#444444">
        <rect x="6" y="8" width="1" height="1" />
    </g>
    <!-- #525252 : 1 px -->
    <g fill="#525252">
        <rect x="10" y="15" width="1" height="1" />
    </g>
    <!-- #767676 : 1 px -->
    <g fill="#767676">
        <rect x="13" y="1" width="1" height="1" />
    </g>
    <!-- #5d5d5d : 1 px -->
    <g fill="#5d5d5d">
        <rect x="13" y="2" width="1" height="1" />
    </g>
    <!-- #3a3a3a : 1 px -->
    <g fill="#3a3a3a">
        <rect x="2" y="4" width="1" height="1" />
    </g>
    <!-- #383738 : 1 px -->
    <g fill="#383738">
        <rect x="12" y="11" width="1" height="1" />
    </g>
    <!-- #3c3c3c : 1 px -->
    <g fill="#3c3c3c">
        <rect x="8" y="8" width="1" height="1" />
    </g>
    <!-- #555455 : 1 px -->
    <g fill="#555455">
        <rect x="10" y="8" width="1" height="1" />
    </g>
    <!-- #5c5b5c : 1 px -->
    <g fill="#5c5b5c">
        <rect x="5" y="6" width="1" height="1" />
    </g>
    <!-- #5e5e5e : 1 px -->
    <g fill="#5e5e5e">
        <rect x="9" y="7" width="1" height="1" />
    </g>
    <!-- #3d3d3d : 1 px -->
    <g fill="#3d3d3d">
        <rect x="9" y="8" width="1" height="1" />
    </g>
</svg>