<svg id="Слой_1" data-name="Слой 1" xmlns="http://www.w3.org/2000/svg" viewBox="0 0 230 230">
  <defs>
    <style>
      .cls-1 {
        fill: none;
      }
      path {
        fill: #09090b;
      }
      @media (prefers-color-scheme: dark) {
        path {
          fill: #fafafa;
        }
      }
    </style>
  </defs>
  <rect class="cls-1" width="230" height="230"/>
  <path d="M449.87,128.93v88.6H435v-114c7.16-1,13.06-1,18.56,6,19.87,25.27,40.56,49.91,61,74.78,1.25,1.53,2.61,3,4.62,5.26V103.4h15.63v6.87c0,33.33,0,66.67-.08,100,0,2.52-.35,6.27-1.93,7.31-3.37,2.21-10.11.09-12.57-2.92C513.07,206,506,197.36,499,188.73,482.91,169.16,466.84,149.61,449.87,128.93Z" transform="translate(-429.62 -45.55)"/>
  <path d="M656.34,218c-6.32,0-11.29.28-16.18-.17-1.53-.14-3.22-2-4.22-3.54-8-11.91-15.72-23.94-23.71-35.83-1-1.44-2.9-3.12-4.43-3.16-10.3-.27-20.61-.14-31.57-.14v42.73c-4.77,0-8.89.14-13-.12a3.43,3.43,0,0,1-2.28-2.43c-.13-17.78-.1-35.57-.1-53.72,1.79-.1,3.24-.25,4.68-.25,14.49,0,29,0,43.47,0a45.17,45.17,0,0,0,8.92-.85c12.11-2.54,18.49-11,17.86-23.34-.55-11-8.6-19.52-20.39-20-15-.67-30-.42-45-.55-3,0-5.94,0-9.28,0V103.61a9.93,9.93,0,0,1,2.25-.5c17.49,0,35-.32,52.46.28,13.48.46,25,5.48,31.8,18.18,10,18.7,2.56,40.81-16.57,49.82-1.17.55-2.3,1.19-3.92,2,4.88,7.49,9.57,14.7,14.29,21.9S650.77,209.49,656.34,218Z" transform="translate(-429.62 -45.55)"/>
</svg>