<svg xmlns="http://www.w3.org/2000/svg" width="96" height="96" viewBox="0 0 32 32"
    shape-rendering="crispEdges">
    <!-- #636363 : 190 px -->
    <g fill="#636363">
        <rect x="14" y="0" width="2" height="1" />
        <rect x="24" y="0" width="2" height="1" />
        <rect x="2" y="1" width="4" height="1" />
        <rect x="8" y="1" width="2" height="1" />
        <rect x="14" y="1" width="2" height="1" />
        <rect x="0" y="2" width="4" height="1" />
        <rect x="18" y="2" width="4" height="1" />
        <rect x="28" y="2" width="1" height="1" />
        <rect x="0" y="3" width="4" height="1" />
        <rect x="18" y="3" width="2" height="1" />
        <rect x="28" y="3" width="1" height="1" />
        <rect x="0" y="4" width="1" height="1" />
        <rect x="28" y="4" width="4" height="1" />
        <rect x="0" y="5" width="1" height="1" />
        <rect x="2" y="6" width="1" height="1" />
        <rect x="20" y="6" width="3" height="1" />
        <rect x="2" y="7" width="2" height="1" />
        <rect x="20" y="7" width="1" height="1" />
        <rect x="2" y="8" width="4" height="1" />
        <rect x="18" y="8" width="2" height="1" />
        <rect x="28" y="8" width="4" height="1" />
        <rect x="2" y="9" width="4" height="1" />
        <rect x="30" y="9" width="2" height="1" />
        <rect x="0" y="10" width="2" height="1" />
        <rect x="4" y="10" width="2" height="1" />
        <rect x="14" y="10" width="3" height="1" />
        <rect x="0" y="11" width="2" height="1" />
        <rect x="4" y="11" width="2" height="1" />
        <rect x="14" y="11" width="3" height="1" />
        <rect x="2" y="12" width="2" height="1" />
        <rect x="18" y="12" width="2" height="1" />
        <rect x="28" y="12" width="4" height="1" />
        <rect x="2" y="13" width="2" height="1" />
        <rect x="28" y="13" width="4" height="1" />
        <rect x="20" y="14" width="2" height="1" />
        <rect x="30" y="14" width="2" height="1" />
        <rect x="20" y="15" width="1" height="1" />
        <rect x="10" y="16" width="2" height="1" />
        <rect x="24" y="16" width="2" height="1" />
        <rect x="10" y="17" width="2" height="1" />
        <rect x="0" y="18" width="1" height="1" />
        <rect x="6" y="18" width="1" height="1" />
        <rect x="10" y="18" width="2" height="1" />
        <rect x="0" y="19" width="1" height="1" />
        <rect x="6" y="19" width="1" height="1" />
        <rect x="10" y="19" width="2" height="1" />
        <rect x="2" y="20" width="2" height="1" />
        <rect x="30" y="20" width="2" height="1" />
        <rect x="2" y="21" width="2" height="1" />
        <rect x="30" y="21" width="2" height="1" />
        <rect x="2" y="22" width="2" height="1" />
        <rect x="10" y="22" width="4" height="1" />
        <rect x="22" y="22" width="2" height="1" />
        <rect x="30" y="22" width="2" height="1" />
        <rect x="0" y="23" width="2" height="1" />
        <rect x="3" y="23" width="1" height="1" />
        <rect x="13" y="23" width="1" height="1" />
        <rect x="23" y="23" width="1" height="1" />
        <rect x="0" y="24" width="1" height="1" />
        <rect x="0" y="25" width="1" height="1" />
        <rect x="4" y="26" width="2" height="1" />
        <rect x="14" y="26" width="2" height="1" />
        <rect x="30" y="26" width="2" height="1" />
        <rect x="30" y="27" width="2" height="1" />
        <rect x="0" y="28" width="1" height="1" />
        <rect x="6" y="28" width="1" height="1" />
        <rect x="16" y="28" width="1" height="1" />
        <rect x="22" y="28" width="1" height="1" />
        <rect x="30" y="28" width="2" height="1" />
        <rect x="0" y="29" width="1" height="1" />
        <rect x="6" y="29" width="1" height="1" />
        <rect x="16" y="29" width="1" height="1" />
        <rect x="22" y="29" width="1" height="1" />
        <rect x="30" y="29" width="2" height="1" />
        <rect x="0" y="30" width="3" height="1" />
        <rect x="5" y="30" width="3" height="1" />
        <rect x="14" y="30" width="14" height="1" />
        <rect x="0" y="31" width="7" height="1" />
        <rect x="14" y="31" width="14" height="1" />
    </g>
    <!-- #5a5a5a : 98 px -->
    <g fill="#5a5a5a">
        <rect x="11" y="0" width="1" height="1" />
        <rect x="16" y="0" width="2" height="1" />
        <rect x="20" y="0" width="3" height="1" />
        <rect x="10" y="1" width="3" height="1" />
        <rect x="17" y="1" width="1" height="1" />
        <rect x="20" y="1" width="4" height="1" />
        <rect x="12" y="2" width="1" height="1" />
        <rect x="30" y="2" width="2" height="1" />
        <rect x="12" y="3" width="1" height="1" />
        <rect x="30" y="3" width="1" height="1" />
        <rect x="2" y="4" width="2" height="1" />
        <rect x="18" y="4" width="4" height="1" />
        <rect x="2" y="5" width="2" height="1" />
        <rect x="21" y="5" width="1" height="1" />
        <rect x="12" y="6" width="1" height="1" />
        <rect x="28" y="6" width="4" height="1" />
        <rect x="12" y="7" width="1" height="1" />
        <rect x="28" y="7" width="1" height="1" />
        <rect x="30" y="7" width="2" height="1" />
        <rect x="14" y="8" width="2" height="1" />
        <rect x="26" y="8" width="2" height="1" />
        <rect x="0" y="9" width="1" height="1" />
        <rect x="6" y="9" width="4" height="1" />
        <rect x="14" y="9" width="2" height="1" />
        <rect x="26" y="9" width="2" height="1" />
        <rect x="24" y="10" width="2" height="1" />
        <rect x="28" y="10" width="1" height="1" />
        <rect x="28" y="11" width="1" height="1" />
        <rect x="0" y="13" width="1" height="1" />
        <rect x="0" y="14" width="1" height="1" />
        <rect x="24" y="14" width="2" height="1" />
        <rect x="0" y="15" width="1" height="1" />
        <rect x="24" y="15" width="2" height="1" />
        <rect x="30" y="16" width="2" height="1" />
        <rect x="30" y="17" width="2" height="1" />
        <rect x="10" y="20" width="4" height="1" />
        <rect x="24" y="20" width="2" height="1" />
        <rect x="10" y="21" width="4" height="1" />
        <rect x="2" y="24" width="2" height="1" />
        <rect x="23" y="24" width="1" height="1" />
        <rect x="2" y="25" width="2" height="1" />
        <rect x="24" y="26" width="2" height="1" />
        <rect x="6" y="27" width="1" height="1" />
        <rect x="24" y="27" width="2" height="1" />
        <rect x="2" y="28" width="4" height="1" />
        <rect x="24" y="28" width="5" height="1" />
        <rect x="2" y="29" width="4" height="1" />
    </g>
    <!-- #707070 : 79 px -->
    <g fill="#707070">
        <rect x="7" y="0" width="1" height="1" />
        <rect x="26" y="0" width="6" height="1" />
        <rect x="0" y="1" width="1" height="1" />
        <rect x="6" y="1" width="1" height="1" />
        <rect x="14" y="2" width="3" height="1" />
        <rect x="14" y="3" width="2" height="1" />
        <rect x="22" y="4" width="1" height="1" />
        <rect x="9" y="6" width="1" height="1" />
        <rect x="18" y="6" width="2" height="1" />
        <rect x="26" y="6" width="2" height="1" />
        <rect x="0" y="7" width="1" height="1" />
        <rect x="4" y="7" width="2" height="1" />
        <rect x="8" y="7" width="2" height="1" />
        <rect x="19" y="7" width="1" height="1" />
        <rect x="16" y="8" width="1" height="1" />
        <rect x="24" y="8" width="2" height="1" />
        <rect x="3" y="10" width="1" height="1" />
        <rect x="30" y="10" width="2" height="1" />
        <rect x="2" y="11" width="2" height="1" />
        <rect x="16" y="12" width="1" height="1" />
        <rect x="24" y="12" width="4" height="1" />
        <rect x="26" y="13" width="2" height="1" />
        <rect x="12" y="14" width="1" height="1" />
        <rect x="26" y="14" width="3" height="1" />
        <rect x="12" y="15" width="1" height="1" />
        <rect x="8" y="16" width="2" height="1" />
        <rect x="0" y="17" width="1" height="1" />
        <rect x="8" y="17" width="2" height="1" />
        <rect x="22" y="20" width="1" height="1" />
        <rect x="14" y="22" width="2" height="1" />
        <rect x="20" y="22" width="2" height="1" />
        <rect x="24" y="22" width="2" height="1" />
        <rect x="25" y="23" width="1" height="1" />
        <rect x="8" y="24" width="2" height="1" />
        <rect x="30" y="24" width="2" height="1" />
        <rect x="8" y="25" width="2" height="1" />
        <rect x="0" y="26" width="1" height="1" />
        <rect x="1" y="27" width="2" height="1" />
        <rect x="9" y="30" width="1" height="1" />
        <rect x="28" y="30" width="4" height="1" />
        <rect x="8" y="31" width="2" height="1" />
        <rect x="28" y="31" width="4" height="1" />
    </g>
    <!-- #515151 : 76 px -->
    <g fill="#515151">
        <rect x="18" y="0" width="2" height="1" />
        <rect x="18" y="1" width="2" height="1" />
        <rect x="4" y="2" width="2" height="1" />
        <rect x="10" y="2" width="2" height="1" />
        <rect x="22" y="2" width="2" height="1" />
        <rect x="4" y="3" width="2" height="1" />
        <rect x="10" y="3" width="2" height="1" />
        <rect x="22" y="3" width="2" height="1" />
        <rect x="12" y="4" width="2" height="1" />
        <rect x="12" y="5" width="2" height="1" />
        <rect x="23" y="8" width="1" height="1" />
        <rect x="6" y="10" width="2" height="1" />
        <rect x="18" y="10" width="2" height="1" />
        <rect x="26" y="10" width="2" height="1" />
        <rect x="6" y="11" width="2" height="1" />
        <rect x="18" y="11" width="2" height="1" />
        <rect x="16" y="14" width="4" height="1" />
        <rect x="16" y="15" width="2" height="1" />
        <rect x="19" y="15" width="1" height="1" />
        <rect x="12" y="16" width="1" height="1" />
        <rect x="12" y="17" width="1" height="1" />
        <rect x="8" y="18" width="2" height="1" />
        <rect x="12" y="18" width="1" height="1" />
        <rect x="24" y="18" width="2" height="1" />
        <rect x="28" y="18" width="4" height="1" />
        <rect x="8" y="19" width="2" height="1" />
        <rect x="12" y="19" width="1" height="1" />
        <rect x="24" y="19" width="2" height="1" />
        <rect x="28" y="19" width="4" height="1" />
        <rect x="0" y="20" width="1" height="1" />
        <rect x="6" y="20" width="1" height="1" />
        <rect x="14" y="20" width="2" height="1" />
        <rect x="0" y="21" width="1" height="1" />
        <rect x="4" y="21" width="3" height="1" />
        <rect x="14" y="21" width="2" height="1" />
        <rect x="12" y="24" width="4" height="1" />
        <rect x="22" y="24" width="1" height="1" />
        <rect x="13" y="25" width="3" height="1" />
    </g>
    <!-- #7e7e7e : 60 px -->
    <g fill="#7e7e7e">
        <rect x="6" y="6" width="1" height="1" />
        <rect x="24" y="6" width="2" height="1" />
        <rect x="6" y="7" width="1" height="1" />
        <rect x="24" y="7" width="2" height="1" />
        <rect x="6" y="14" width="6" height="1" />
        <rect x="22" y="14" width="1" height="1" />
        <rect x="6" y="15" width="6" height="1" />
        <rect x="6" y="16" width="1" height="1" />
        <rect x="6" y="17" width="1" height="1" />
        <rect x="3" y="18" width="3" height="1" />
        <rect x="2" y="19" width="4" height="1" />
        <rect x="16" y="22" width="4" height="1" />
        <rect x="4" y="24" width="3" height="1" />
        <rect x="24" y="24" width="2" height="1" />
        <rect x="4" y="25" width="3" height="1" />
        <rect x="22" y="26" width="1" height="1" />
        <rect x="26" y="26" width="3" height="1" />
        <rect x="14" y="28" width="2" height="1" />
        <rect x="18" y="28" width="4" height="1" />
        <rect x="14" y="29" width="2" height="1" />
        <rect x="18" y="29" width="1" height="1" />
        <rect x="21" y="29" width="1" height="1" />
        <rect x="10" y="30" width="3" height="1" />
        <rect x="10" y="31" width="3" height="1" />
    </g>
    <!-- #474749 : 54 px -->
    <g fill="#474749">
        <rect x="6" y="2" width="4" height="1" />
        <rect x="24" y="2" width="4" height="1" />
        <rect x="6" y="3" width="4" height="1" />
        <rect x="24" y="3" width="4" height="1" />
        <rect x="14" y="4" width="3" height="1" />
        <rect x="14" y="5" width="3" height="1" />
        <rect x="10" y="8" width="3" height="1" />
        <rect x="20" y="8" width="3" height="1" />
        <rect x="10" y="9" width="3" height="1" />
        <rect x="20" y="9" width="3" height="1" />
        <rect x="8" y="10" width="2" height="1" />
        <rect x="8" y="11" width="2" height="1" />
        <rect x="4" y="12" width="2" height="1" />
        <rect x="4" y="13" width="2" height="1" />
        <rect x="14" y="14" width="2" height="1" />
        <rect x="14" y="15" width="2" height="1" />
        <rect x="16" y="16" width="1" height="1" />
        <rect x="26" y="16" width="3" height="1" />
        <rect x="16" y="17" width="1" height="1" />
        <rect x="26" y="17" width="3" height="1" />
    </g>
    <!-- #3456ac : 53 px -->
    <g fill="#3456ac">
        <rect x="16" y="6" width="1" height="1" />
        <rect x="16" y="7" width="1" height="1" />
        <rect x="8" y="12" width="2" height="1" />
        <rect x="12" y="12" width="2" height="1" />
        <rect x="20" y="12" width="2" height="1" />
        <rect x="8" y="13" width="1" height="1" />
        <rect x="12" y="13" width="2" height="1" />
        <rect x="4" y="14" width="2" height="1" />
        <rect x="4" y="15" width="2" height="1" />
        <rect x="2" y="16" width="2" height="1" />
        <rect x="2" y="17" width="2" height="1" />
        <rect x="18" y="18" width="4" height="1" />
        <rect x="18" y="19" width="4" height="1" />
        <rect x="18" y="20" width="2" height="1" />
        <rect x="26" y="20" width="2" height="1" />
        <rect x="26" y="21" width="2" height="1" />
        <rect x="28" y="22" width="1" height="1" />
        <rect x="28" y="23" width="1" height="1" />
        <rect x="18" y="24" width="4" height="1" />
        <rect x="28" y="24" width="1" height="1" />
        <rect x="18" y="25" width="4" height="1" />
        <rect x="8" y="26" width="2" height="1" />
        <rect x="16" y="26" width="1" height="1" />
        <rect x="8" y="27" width="2" height="1" />
        <rect x="10" y="28" width="2" height="1" />
        <rect x="10" y="29" width="2" height="1" />
    </g>
    <!-- #6f6f6f : 46 px -->
    <g fill="#6f6f6f">
        <rect x="1" y="1" width="1" height="1" />
        <rect x="28" y="1" width="4" height="1" />
        <rect x="17" y="2" width="1" height="1" />
        <rect x="16" y="3" width="2" height="1" />
        <rect x="22" y="5" width="1" height="1" />
        <rect x="0" y="6" width="2" height="1" />
        <rect x="4" y="6" width="2" height="1" />
        <rect x="8" y="6" width="1" height="1" />
        <rect x="1" y="7" width="1" height="1" />
        <rect x="18" y="7" width="1" height="1" />
        <rect x="26" y="7" width="2" height="1" />
        <rect x="17" y="8" width="1" height="1" />
        <rect x="16" y="9" width="1" height="1" />
        <rect x="24" y="9" width="2" height="1" />
        <rect x="2" y="10" width="1" height="1" />
        <rect x="30" y="11" width="2" height="1" />
        <rect x="17" y="12" width="1" height="1" />
        <rect x="16" y="13" width="1" height="1" />
        <rect x="24" y="13" width="2" height="1" />
        <rect x="29" y="14" width="1" height="1" />
        <rect x="26" y="15" width="2" height="1" />
        <rect x="0" y="16" width="1" height="1" />
        <rect x="22" y="21" width="1" height="1" />
        <rect x="14" y="23" width="2" height="1" />
        <rect x="20" y="23" width="2" height="1" />
        <rect x="30" y="25" width="2" height="1" />
        <rect x="1" y="26" width="3" height="1" />
        <rect x="0" y="27" width="1" height="1" />
        <rect x="3" y="27" width="1" height="1" />
        <rect x="8" y="30" width="1" height="1" />
    </g>
    <!-- #5d5d5d : 43 px -->
    <g fill="#5d5d5d">
        <rect x="10" y="0" width="1" height="1" />
        <rect x="12" y="0" width="2" height="1" />
        <rect x="23" y="0" width="1" height="1" />
        <rect x="13" y="1" width="1" height="1" />
        <rect x="16" y="1" width="1" height="1" />
        <rect x="25" y="1" width="1" height="1" />
        <rect x="13" y="2" width="1" height="1" />
        <rect x="13" y="3" width="1" height="1" />
        <rect x="31" y="3" width="1" height="1" />
        <rect x="18" y="5" width="3" height="1" />
        <rect x="29" y="7" width="1" height="1" />
        <rect x="0" y="8" width="2" height="1" />
        <rect x="6" y="8" width="4" height="1" />
        <rect x="1" y="9" width="1" height="1" />
        <rect x="17" y="10" width="1" height="1" />
        <rect x="29" y="10" width="1" height="1" />
        <rect x="17" y="11" width="1" height="1" />
        <rect x="24" y="11" width="2" height="1" />
        <rect x="29" y="11" width="1" height="1" />
        <rect x="0" y="12" width="2" height="1" />
        <rect x="1" y="13" width="1" height="1" />
        <rect x="7" y="18" width="1" height="1" />
        <rect x="7" y="19" width="1" height="1" />
        <rect x="24" y="21" width="2" height="1" />
        <rect x="23" y="25" width="1" height="1" />
        <rect x="6" y="26" width="1" height="1" />
        <rect x="29" y="28" width="1" height="1" />
        <rect x="24" y="29" width="6" height="1" />
    </g>
    <!-- #626262 : 42 px -->
    <g fill="#626262">
        <rect x="24" y="1" width="1" height="1" />
        <rect x="29" y="2" width="1" height="1" />
        <rect x="20" y="3" width="2" height="1" />
        <rect x="29" y="3" width="1" height="1" />
        <rect x="1" y="4" width="1" height="1" />
        <rect x="1" y="5" width="1" height="1" />
        <rect x="28" y="5" width="4" height="1" />
        <rect x="3" y="6" width="1" height="1" />
        <rect x="21" y="7" width="2" height="1" />
        <rect x="18" y="9" width="2" height="1" />
        <rect x="28" y="9" width="2" height="1" />
        <rect x="18" y="13" width="2" height="1" />
        <rect x="21" y="15" width="1" height="1" />
        <rect x="30" y="15" width="2" height="1" />
        <rect x="24" y="17" width="2" height="1" />
        <rect x="0" y="22" width="2" height="1" />
        <rect x="2" y="23" width="1" height="1" />
        <rect x="10" y="23" width="3" height="1" />
        <rect x="22" y="23" width="1" height="1" />
        <rect x="1" y="24" width="1" height="1" />
        <rect x="1" y="25" width="1" height="1" />
        <rect x="4" y="27" width="2" height="1" />
        <rect x="1" y="28" width="1" height="1" />
        <rect x="23" y="28" width="1" height="1" />
        <rect x="1" y="29" width="1" height="1" />
        <rect x="23" y="29" width="1" height="1" />
        <rect x="3" y="30" width="2" height="1" />
    </g>
    <!-- #103272 : 42 px -->
    <g fill="#103272">
        <rect x="10" y="4" width="2" height="1" />
        <rect x="26" y="4" width="2" height="1" />
        <rect x="10" y="5" width="2" height="1" />
        <rect x="14" y="6" width="2" height="1" />
        <rect x="14" y="7" width="2" height="1" />
        <rect x="14" y="12" width="2" height="1" />
        <rect x="14" y="13" width="2" height="1" />
        <rect x="20" y="16" width="3" height="1" />
        <rect x="20" y="17" width="3" height="1" />
        <rect x="22" y="18" width="1" height="1" />
        <rect x="22" y="19" width="1" height="1" />
        <rect x="4" y="22" width="6" height="1" />
        <rect x="4" y="23" width="6" height="1" />
        <rect x="10" y="24" width="2" height="1" />
        <rect x="16" y="24" width="2" height="1" />
        <rect x="10" y="25" width="1" height="1" />
        <rect x="16" y="25" width="1" height="1" />
        <rect x="12" y="28" width="1" height="1" />
        <rect x="12" y="29" width="1" height="1" />
    </g>
    <!-- #134394 : 27 px -->
    <g fill="#134394">
        <rect x="4" y="4" width="2" height="1" />
        <rect x="8" y="4" width="2" height="1" />
        <rect x="4" y="5" width="2" height="1" />
        <rect x="8" y="5" width="2" height="1" />
        <rect x="10" y="10" width="2" height="1" />
        <rect x="10" y="11" width="2" height="1" />
        <rect x="18" y="16" width="2" height="1" />
        <rect x="18" y="17" width="2" height="1" />
        <rect x="16" y="18" width="2" height="1" />
        <rect x="16" y="19" width="2" height="1" />
        <rect x="12" y="26" width="2" height="1" />
        <rect x="12" y="27" width="1" height="1" />
        <rect x="8" y="28" width="2" height="1" />
        <rect x="8" y="29" width="2" height="1" />
    </g>
    <!-- #0c3387 : 24 px -->
    <g fill="#0c3387">
        <rect x="10" y="6" width="2" height="1" />
        <rect x="10" y="7" width="2" height="1" />
        <rect x="12" y="10" width="1" height="1" />
        <rect x="12" y="11" width="1" height="1" />
        <rect x="2" y="14" width="1" height="1" />
        <rect x="2" y="15" width="2" height="1" />
        <rect x="14" y="16" width="2" height="1" />
        <rect x="14" y="17" width="2" height="1" />
        <rect x="14" y="18" width="2" height="1" />
        <rect x="26" y="18" width="2" height="1" />
        <rect x="14" y="19" width="2" height="1" />
        <rect x="8" y="20" width="2" height="1" />
        <rect x="8" y="21" width="2" height="1" />
        <rect x="11" y="25" width="1" height="1" />
    </g>
    <!-- #7b7c7c : 23 px -->
    <g fill="#7b7c7c">
        <rect x="7" y="6" width="1" height="1" />
        <rect x="7" y="7" width="1" height="1" />
        <rect x="23" y="14" width="1" height="1" />
        <rect x="22" y="15" width="1" height="1" />
        <rect x="7" y="16" width="1" height="1" />
        <rect x="7" y="17" width="1" height="1" />
        <rect x="2" y="18" width="1" height="1" />
        <rect x="18" y="23" width="2" height="1" />
        <rect x="7" y="24" width="1" height="1" />
        <rect x="7" y="25" width="1" height="1" />
        <rect x="24" y="25" width="2" height="1" />
        <rect x="23" y="26" width="1" height="1" />
        <rect x="29" y="26" width="1" height="1" />
        <rect x="22" y="27" width="1" height="1" />
        <rect x="26" y="27" width="3" height="1" />
        <rect x="19" y="29" width="2" height="1" />
        <rect x="13" y="30" width="1" height="1" />
        <rect x="13" y="31" width="1" height="1" />
    </g>
    <!-- #5073be : 21 px -->
    <g fill="#5073be">
        <rect x="10" y="12" width="2" height="1" />
        <rect x="22" y="12" width="1" height="1" />
        <rect x="10" y="13" width="2" height="1" />
        <rect x="4" y="16" width="2" height="1" />
        <rect x="4" y="17" width="2" height="1" />
        <rect x="20" y="20" width="2" height="1" />
        <rect x="26" y="22" width="2" height="1" />
        <rect x="26" y="23" width="2" height="1" />
        <rect x="10" y="26" width="2" height="1" />
        <rect x="18" y="26" width="2" height="1" />
        <rect x="10" y="27" width="2" height="1" />
    </g>
    <!-- #18406f : 15 px -->
    <g fill="#18406f">
        <rect x="6" y="4" width="2" height="1" />
        <rect x="6" y="5" width="2" height="1" />
        <rect x="26" y="5" width="2" height="1" />
        <rect x="20" y="10" width="2" height="1" />
        <rect x="20" y="11" width="2" height="1" />
        <rect x="23" y="16" width="1" height="1" />
        <rect x="23" y="17" width="1" height="1" />
        <rect x="23" y="18" width="1" height="1" />
        <rect x="23" y="19" width="1" height="1" />
        <rect x="28" y="20" width="1" height="1" />
    </g>
    <!-- #3958a9 : 15 px -->
    <g fill="#3958a9">
        <rect x="17" y="6" width="1" height="1" />
        <rect x="17" y="7" width="1" height="1" />
        <rect x="9" y="13" width="1" height="1" />
        <rect x="20" y="13" width="2" height="1" />
        <rect x="18" y="21" width="2" height="1" />
        <rect x="29" y="22" width="1" height="1" />
        <rect x="29" y="23" width="1" height="1" />
        <rect x="29" y="24" width="1" height="1" />
        <rect x="28" y="25" width="2" height="1" />
        <rect x="17" y="26" width="1" height="1" />
        <rect x="16" y="27" width="2" height="1" />
    </g>
    <!-- #6a6a6a : 15 px -->
    <g fill="#6a6a6a">
        <rect x="2" y="0" width="2" height="1" />
        <rect x="7" y="1" width="1" height="1" />
        <rect x="26" y="1" width="2" height="1" />
        <rect x="17" y="9" width="1" height="1" />
        <rect x="17" y="13" width="1" height="1" />
        <rect x="13" y="14" width="1" height="1" />
        <rect x="13" y="15" width="1" height="1" />
        <rect x="28" y="15" width="2" height="1" />
        <rect x="1" y="16" width="1" height="1" />
        <rect x="1" y="18" width="1" height="1" />
        <rect x="23" y="20" width="1" height="1" />
        <rect x="23" y="21" width="1" height="1" />
    </g>
    <!-- #646466 : 14 px -->
    <g fill="#646466">
        <rect x="4" y="0" width="2" height="1" />
        <rect x="8" y="0" width="2" height="1" />
        <rect x="23" y="6" width="1" height="1" />
        <rect x="23" y="7" width="1" height="1" />
        <rect x="1" y="19" width="1" height="1" />
        <rect x="30" y="23" width="2" height="1" />
        <rect x="14" y="27" width="2" height="1" />
        <rect x="17" y="28" width="1" height="1" />
        <rect x="17" y="29" width="1" height="1" />
        <rect x="7" y="31" width="1" height="1" />
    </g>
    <!-- #0f2c95 : 14 px -->
    <g fill="#0f2c95">
        <rect x="24" y="4" width="2" height="1" />
        <rect x="22" y="10" width="1" height="1" />
        <rect x="22" y="11" width="1" height="1" />
        <rect x="7" y="12" width="1" height="1" />
        <rect x="6" y="13" width="2" height="1" />
        <rect x="16" y="20" width="2" height="1" />
        <rect x="16" y="21" width="1" height="1" />
        <rect x="26" y="24" width="2" height="1" />
        <rect x="20" y="26" width="2" height="1" />
    </g>
    <!-- #494f58 : 13 px -->
    <g fill="#494f58">
        <rect x="13" y="6" width="1" height="1" />
        <rect x="13" y="7" width="1" height="1" />
        <rect x="23" y="9" width="1" height="1" />
        <rect x="18" y="15" width="1" height="1" />
        <rect x="13" y="16" width="1" height="1" />
        <rect x="17" y="16" width="1" height="1" />
        <rect x="13" y="17" width="1" height="1" />
        <rect x="17" y="17" width="1" height="1" />
        <rect x="13" y="18" width="1" height="1" />
        <rect x="13" y="19" width="1" height="1" />
        <rect x="7" y="20" width="1" height="1" />
        <rect x="7" y="21" width="1" height="1" />
        <rect x="12" y="25" width="1" height="1" />
    </g>
    <!-- #183a8d : 12 px -->
    <g fill="#183a8d">
        <rect x="24" y="5" width="2" height="1" />
        <rect x="13" y="10" width="1" height="1" />
        <rect x="23" y="10" width="1" height="1" />
        <rect x="13" y="11" width="1" height="1" />
        <rect x="23" y="11" width="1" height="1" />
        <rect x="17" y="21" width="1" height="1" />
        <rect x="26" y="25" width="2" height="1" />
        <rect x="13" y="27" width="1" height="1" />
        <rect x="20" y="27" width="2" height="1" />
    </g>
    <!-- #727377 : 10 px -->
    <g fill="#727377">
        <rect x="0" y="0" width="2" height="1" />
        <rect x="6" y="0" width="1" height="1" />
        <rect x="23" y="15" width="1" height="1" />
        <rect x="1" y="17" width="1" height="1" />
        <rect x="16" y="23" width="2" height="1" />
        <rect x="24" y="23" width="1" height="1" />
        <rect x="23" y="27" width="1" height="1" />
        <rect x="29" y="27" width="1" height="1" />
    </g>
    <!-- #5775b7 : 7 px -->
    <g fill="#5775b7">
        <rect x="23" y="12" width="1" height="1" />
        <rect x="22" y="13" width="2" height="1" />
        <rect x="20" y="21" width="2" height="1" />
        <rect x="18" y="27" width="2" height="1" />
    </g>
    <!-- #555555 : 7 px -->
    <g fill="#555555">
        <rect x="26" y="11" width="2" height="1" />
        <rect x="1" y="20" width="1" height="1" />
        <rect x="4" y="20" width="2" height="1" />
        <rect x="1" y="21" width="1" height="1" />
        <rect x="22" y="25" width="1" height="1" />
    </g>
    <!-- #204275 : 6 px -->
    <g fill="#204275">
        <rect x="29" y="20" width="1" height="1" />
        <rect x="28" y="21" width="2" height="1" />
        <rect x="17" y="25" width="1" height="1" />
        <rect x="13" y="28" width="1" height="1" />
        <rect x="13" y="29" width="1" height="1" />
    </g>
    <!-- #4a4b4b : 6 px -->
    <g fill="#4a4b4b">
        <rect x="17" y="4" width="1" height="1" />
        <rect x="17" y="5" width="1" height="1" />
        <rect x="13" y="8" width="1" height="1" />
        <rect x="13" y="9" width="1" height="1" />
        <rect x="29" y="16" width="1" height="1" />
        <rect x="29" y="17" width="1" height="1" />
    </g>
    <!-- #4b586a : 4 px -->
    <g fill="#4b586a">
        <rect x="1" y="14" width="1" height="1" />
        <rect x="1" y="15" width="1" height="1" />
        <rect x="7" y="26" width="1" height="1" />
        <rect x="7" y="27" width="1" height="1" />
    </g>
    <!-- #5f6169 : 4 px -->
    <g fill="#5f6169">
        <rect x="23" y="4" width="1" height="1" />
        <rect x="23" y="5" width="1" height="1" />
        <rect x="7" y="28" width="1" height="1" />
        <rect x="7" y="29" width="1" height="1" />
    </g>
    <!-- #103989 : 3 px -->
    <g fill="#103989">
        <rect x="3" y="14" width="1" height="1" />
        <rect x="26" y="19" width="2" height="1" />
    </g>
    <!-- #0f2a90 : 1 px -->
    <g fill="#0f2a90">
        <rect x="6" y="12" width="1" height="1" />
    </g>
</svg>
